<svg id="Layer_1" data-name="Layer 1" width="190" height="40" xmlns="http://www.w3.org/2000/svg"
    xmlns:xlink="http://www.w3.org/1999/xlink" viewBox="0 0 402.36 128.91">
    <defs>
        <style>
            .cls-1 {
                fill: none;
            }

            .cls-2 {
                fill: #3b3b3b;
            }

            .cls-3,
            .cls-4,
            .cls-5 {
                isolation: isolate;
            }

            .cls-4 {
                font-size: 85px;
                letter-spacing: 0.02em;
            }

            .cls-4,
            .cls-5 {
                fill: #ccc;
                font-family: Garamond;
            }

            .cls-5 {
                font-size: 36px;
                letter-spacing: 0.13em;
            }

            .cls-6 {
                clip-path: url(#clip-path);
            }

            .cls-7 {
                fill: url(#linear-gradient);
            }

            .cls-8 {
                clip-path: url(#clip-path-2);
            }

            .cls-9 {
                fill: url(#linear-gradient-2);
            }

            .cls-10 {
                clip-path: url(#clip-path-3);
            }

            .cls-11 {
                fill: url(#linear-gradient-3);
            }

            .cls-12 {
                clip-path: url(#clip-path-4);
            }

            .cls-13 {
                fill: url(#linear-gradient-4);
            }
        </style>
        <clipPath id="clip-path">
            <path class="cls-1"
                d="M58.75,0A5.74,5.74,0,0,1,64.5,5.73V47h64.33c.12-1.33.18-2.67.18-4A43,43,0,0,0,86,0H58.75Z" />
        </clipPath>
        <linearGradient id="linear-gradient" x1="-298.34" y1="128.01" x2="-297.34" y2="128.01"
            gradientTransform="matrix(0, 70.26, 70.26, 0, -8900.18, 20961.09)" gradientUnits="userSpaceOnUse">
            <stop offset="0" stop-color="#fff" />
            <stop offset="0.04" stop-color="#e4e4e4" />
            <stop offset="0.08" stop-color="#d2d2d2" />
            <stop offset="0.11" stop-color="#cccccb" />
            <stop offset="1" stop-color="#cccccb" />
        </linearGradient>
        <clipPath id="clip-path-2">
            <path class="cls-1"
                d="M60.91,82.11H.18a41.7,41.7,0,0,0-.15,5c.6,23,20.65,41.8,43.66,41.8H70.26a5.76,5.76,0,0,1-5.76-5.75v-41Z" />
        </clipPath>
        <linearGradient id="linear-gradient-2" x1="-308.18" y1="121.41" x2="-307.18" y2="121.41"
            gradientTransform="matrix(0, -70.26, -70.26, 0, 8565.18, -21522.34)" gradientUnits="userSpaceOnUse">
            <stop offset="0" stop-color="#fff" />
            <stop offset="0.17" stop-color="#cccccb" />
            <stop offset="1" stop-color="#cccccb" />
        </linearGradient>
        <clipPath id="clip-path-3">
            <path class="cls-1"
                d="M85.83,82.12l-2,3.83-16.9,32.61-2.44,4.69h0A5.74,5.74,0,0,0,70.24,129h15c22.93,0,42.37-17.67,43.63-40.55A43,43,0,0,0,104.06,47Z" />
        </clipPath>
        <linearGradient id="linear-gradient-3" x1="-308.62" y1="121.12" x2="-307.62" y2="121.12"
            gradientTransform="matrix(0, -64.51, -64.51, 0, 7910.44, -19778.71)" gradientUnits="userSpaceOnUse">
            <stop offset="0" stop-color="#221f1f" />
            <stop offset="0.02" stop-color="#292627" />
            <stop offset="0.06" stop-color="#3c3b3d" />
            <stop offset="0.07" stop-color="#424143" />
            <stop offset="0.16" stop-color="#666566" />
            <stop offset="0.25" stop-color="#858485" />
            <stop offset="0.35" stop-color="#9f9f9f" />
            <stop offset="0.46" stop-color="#b3b3b2" />
            <stop offset="0.59" stop-color="#c1c1c0" />
            <stop offset="0.74" stop-color="#cac9c9" />
            <stop offset="1" stop-color="#cccccb" />
        </linearGradient>
        <clipPath id="clip-path-4">
            <path class="cls-1"
                d="M43.73,0C21.38,0,1.33,18.21.07,40.52A43,43,0,0,0,25.2,82.16h0l18-35h0l2.1-4.09L62.09,10.44,64.5,5.76h0A5.74,5.74,0,0,0,58.76,0h-15Z" />
        </clipPath>
        <linearGradient id="linear-gradient-4" x1="-297.9" y1="128.29" x2="-296.9" y2="128.29"
            gradientTransform="matrix(0, 64.5, 64.5, 0, -8242.34, 19213.77)" gradientUnits="userSpaceOnUse">
            <stop offset="0" stop-color="#221f1f" />
            <stop offset="0.01" stop-color="#2a2728" />
            <stop offset="0.04" stop-color="#3c3a3c" />
            <stop offset="0.05" stop-color="#424143" />
            <stop offset="0.08" stop-color="#504f51" />
            <stop offset="0.14" stop-color="#717071" />
            <stop offset="0.22" stop-color="#8e8d8d" />
            <stop offset="0.3" stop-color="#a5a4a4" />
            <stop offset="0.39" stop-color="#b6b6b6" />
            <stop offset="0.51" stop-color="#c3c3c2" />
            <stop offset="0.66" stop-color="#cacac9" />
            <stop offset="1" stop-color="#cccccb" />
        </linearGradient>
    </defs>
    <g id="Layer_2" data-name="Layer 2">
        <g id="Layer_1-2" data-name="Layer 1-2">
            <g id="PAGE_2" data-name="PAGE 2">
                <g id="SWIFT_LIGHTNING_LOGO" data-name="SWIFT LIGHTNING LOGO">
                    <path class="cls-2"
                        d="M129,43c0,1.33-.06,2.67-.18,4H64.5V5.75A5.74,5.74,0,0,0,58.77,0H86a43,43,0,0,1,43,43" />
                    <path class="cls-2"
                        d="M70.26,129H43A43,43,0,0,1,0,86c0-1.28.06-2.56.17-3.81H64.5v41.15A5.76,5.76,0,0,0,70.26,129" />
                    <path class="cls-2"
                        d="M129,86a43,43,0,0,1-43,43H70.26a5.76,5.76,0,0,1-5.76-5.76h0l2.44-4.69L83.84,86l2-3.83L104.06,47A43,43,0,0,1,129,86" />
                    <path class="cls-2"
                        d="M64.5,5.75h0l-2.41,4.68L45.31,43.07l-2.1,4.09h0l-18,35h0A43,43,0,0,1,.07,40.53C1.32,18.21,21.37,0,43.73,0h15A5.74,5.74,0,0,1,64.5,5.71v0" />
                    <g id="SWIFT_LIGHTNING_TEXT" data-name="SWIFT LIGHTNING TEXT">
                        <g class="cls-3"><text class="cls-4" transform="translate(150 76.71)">SWIFT</text></g>
                        <g class="cls-3"><text class="cls-5" transform="translate(154 105.3)">LIGHTNING</text></g>
                    </g>
                    <g id="SWIFT_LIGHTNING" data-name="SWIFT LIGHTNING">
                        <g class="cls-6">
                            <rect class="cls-7" x="58.75" width="70.26" height="46.96" />
                        </g>
                        <g class="cls-8">
                            <rect class="cls-9" y="82.11" width="70.26" height="46.9" />
                        </g>
                        <g class="cls-10">
                            <rect class="cls-11" x="64.5" y="46.96" width="64.51" height="82.05" />
                        </g>
                        <g class="cls-12">
                            <rect class="cls-13" width="64.5" height="82.16" />
                        </g>
                    </g>
                </g>
            </g>
        </g>
    </g>
</svg>